<?xml version="1.0" encoding="UTF-8"?>
<svg xmlns="http://www.w3.org/2000/svg" viewBox="0 0 845.27 117.36">
  <defs>
    <style>
      .cls-1 {
        fill: none;
        stroke: #0079b9;
        stroke-miterlimit: 10;
        stroke-width: 2px;
      }

      .cls-2 {
        fill: #e2c700;
      }

      .cls-3 {
        fill: #0079b9;
      }

      .cls-4 {
        fill: #ee1d25;
      }
    </style>
  </defs>
  <g>
    <g id="Layer_2" data-name="Layer 2">
      <polygon class="cls-4" points="9.4 26.72 10.6 19.02 62.7 19.02 59.5 36.82 48.7 36.82 46.4 27.92 32.6 27.92 29.3 45.02 49.8 45.02 48.2 54.62 27.8 54.62 24.5 73.02 40 73.02 45.7 65.02 56.7 65.02 51.5 81.52 0 81.52 .8 74.72 10.3 71.22 17.6 29.72 9.4 26.72"/>
      <path class="cls-4" d="M63.7,34.92h21.7v6.6s6.7-7.6,18.3-7.6c8.6,0,11.3,4.3,12.3,6.9h1.5s6.2-6.9,17.5-6.9c8.2,0,14.1,3.7,13.1,11.1-1,7.4-4.6,27.8-4.6,27.8l7.9,2.8-.8,5.5h-28.1l.7-5.9,6.4-2.7,4-21.5s2.1-7.9-5.5-7.9c0,0-4.6-.9-11.5,4.8l-4.1,24.5,5.4,2.6-1.1,6.5h-25.4l.5-6.7,6.8-2.3,4.3-23.9s.9-5.4-6.3-5.4c-2.7,0-5.1,.6-11.3,4.9-1.1,7.5-4.1,24.8-4.1,24.8l5.4,2.2-.9,6.4h-28.3l.5-5.8,9.7-3.4,4.4-26.4-9.4-3.2,1-7.8Z"/>
      <path class="cls-4" d="M209.2,51.99c0-13.47-7.87-18.07-16.67-18.07-10.53,0-17.73,7.27-17.73,7.27v-6.27h-19.87l-1.33,7.47,9.33,3.6-8,44.53-8.93,2.53-.93,5.73h32.53l.4-5.73-9.2-2.8,1.07-8.73c29.2,5.53,39.33-19,39.33-29.53Zm-33.2-4.17s5.8-4.8,11.4-4.8,8.5,4.9,7.6,11.7-5,22-23.4,19.3l4.4-26.2Z"/>
      <polygon class="cls-4" points="212.1 43.02 213.5 34.92 237 34.92 230.7 72.62 238.5 75.12 238 81.52 206.6 81.52 207.5 75.42 217 72.52 221.6 45.62 212.1 43.02"/>
      <path class="cls-4" d="M243.8,42.52l1.3-7.6h21.3v6.3s9.1-7.3,17.6-7.3h5.7l-3.2,17h-10.3v-7.4h-1.9s-5.8,2.3-8.4,5.5c-.8,5.2-3.8,23.5-3.8,23.5l8.8,2.7-.5,6.3h-31.9l.7-6,9.1-2.9,4.5-26.8-9-3.3Z"/>
      <path class="cls-4" d="M300.1,59.72h33.5s.9-8,.9-12.3-2.2-13.5-17.6-13.5c-25.1,0-31.1,18.7-31.1,28.8,0,16.33,13,20,22.7,20s19.2-2.9,19.2-2.9v-8.9s-4.4,2-15,2c-13.7,0-12.6-9.9-12.6-9.9v-3.3Zm13.5-18.4c7.3,0,7.5,5.3,7.4,10.6h-19.5s2.8-10.6,12.1-10.6Z"/>
      <polygon class="cls-4" points="237.6 30.92 223.6 30.92 225.73 20.52 239.65 20.52 237.6 30.92"/>
    </g>
    <g id="Layer_5" data-name="Layer 5">
      <path class="cls-4" d="M799.37,42.6l1.3-7.6h21.3v6.3s9.1-7.3,17.6-7.3h5.7l-3.2,17h-10.3v-7.4h-1.9s-5.8,2.3-8.4,5.5c-.8,5.2-3.8,23.5-3.8,23.5l8.8,2.7-.5,6.3h-31.9l.7-6,9.1-2.9,4.5-26.8-9-3.3Z"/>
      <path class="cls-4" d="M760.99,59.2h33.5s.9-8,.9-12.3-2.2-13.5-17.6-13.5c-25.1,0-31.1,18.7-31.1,28.8,0,16.33,13,20,22.7,20s19.2-2.9,19.2-2.9v-8.9s-4.4,2-15,2c-13.7,0-12.6-9.9-12.6-9.9v-3.3Zm13.5-18.4c7.3,0,7.5,5.3,7.4,10.6h-19.5s2.8-10.6,12.1-10.6Z"/>
      <polygon class="cls-4" points="525.5 26.44 526.7 18.84 558.3 18.84 556.83 26.44 548.17 29.64 544.57 50.18 571.77 29.64 566.3 26.98 567.23 18.84 594.97 18.84 593.23 26.84 587.23 28.44 563.37 45.91 578.83 71.24 584.3 73.91 583.9 81.38 565.63 81.38 552.57 54.04 541.9 62.31 540.83 71.78 548.17 74.44 547.77 81.38 515.8 81.38 515.8 75.91 526.43 71.24 533.77 29.64 525.5 26.44"/>
      <path class="cls-4" d="M615.63,34.04c-18.8,0-29.07,13.07-29.87,28s8.67,20,21.2,20c17.73,0,29.2-8.67,30.8-29.2s-22.13-18.8-22.13-18.8Zm8.14,18.8c-1.33,12.13-5.33,22.13-14.8,22.13-8.27,0-10-6.93-9.33-12.67,.67-5.73,2.93-20.8,15.07-20.8-.01,0,10.39-.79,9.06,11.34Z"/>
      <path class="cls-4" d="M685.5,35.11l-1.87,14.4h-10.27l-.8-8.01h-8.67s-6,.14-6,4.28,4.53,5.47,9.47,6.8c4.93,1.33,14.13,4.27,14.13,13.87s-10.93,15.6-17.2,15.6h-24.67l2-15.6h10.13l1.6,8.53h9.87s5.47-.93,5.47-5.6-10-6.53-10-6.53c0,0-13.87-2.27-13.87-14.8s15.2-14.04,21.6-14.04c6.41,0,19.08,1.1,19.08,1.1Z"/>
      <path class="cls-4" d="M692.17,15.11h23.47l-4.27,24.4s5.2-5.5,17.07-5.5c8.13,0,13.73,2.44,12.4,12.44s-4.13,25.87-4.13,25.87l7.33,2.8v6.13h-28.4l.4-6.13,6.93-2.8,4.13-24.67s.67-4.8-6.13-4.8-11.2,5.33-11.2,5.33l-4.27,24.27,5.33,2.13-.8,6.67h-28l.93-5.87,8.63-2.8,8.43-46.53-9.07-3.47,1.22-7.47Z"/>
    </g>
    <g id="Layer_4" data-name="Layer 4">
      <rect class="cls-3" y="86.72" width="140.4" height="12.07"/>
      <rect class="cls-3" x="183.38" y="86.72" width="151.12" height="12.07"/>
      <rect class="cls-3" x="515.8" y="86.72" width="329.46" height="12.07"/>
    </g>
    <g id="Layer_3" data-name="Layer 3">
      <path class="cls-3" d="M381.63,22L494.03,0l-8.4,56s-.4,5.2-5.2,5.2-85.4,4.6-85.4,4.6c0,0-6.13,.47-6.13-4.73,0-4.13,2.67-5.87,6-6s81.2-3.2,81.2-3.2l6.8-40.13-92.8,17.6-9.33,38.53s82.93,9.47,96.13,22.53c5.07,4.53,5.73,10.53,5.73,10.53,0,0-30-15.07-107.07-22.27,0,0-6.53-.4-5.33-6.67,1.2-6.25,11.4-49.99,11.4-49.99Z"/>
      <line class="cls-1" x1="404.5" y1="24.2" x2="399.7" y2="58.4"/>
      <line class="cls-1" x1="416.97" y1="22.27" x2="411.5" y2="58.07"/>
      <line class="cls-1" x1="428.63" y1="19.47" x2="422.37" y2="57.27"/>
      <line class="cls-1" x1="440.3" y1="17.4" x2="434.03" y2="56.27"/>
      <line class="cls-1" x1="452.3" y1="15.6" x2="445.5" y2="55.94"/>
      <line class="cls-1" x1="464.23" y1="12.87" x2="457.17" y2="55.8"/>
      <line class="cls-1" x1="475.9" y1="10.47" x2="468.83" y2="55.34"/>
      <circle class="cls-2" cx="378.27" cy="16.54" r="6.06"/>
      <circle class="cls-2" cx="381.84" cy="86.43" r="6.92"/>
      <circle class="cls-2" cx="469.59" cy="107.05" r="10.31"/>
    </g>
  </g>
</svg>