<?xml version="1.0" encoding="UTF-8"?>
<svg xmlns="http://www.w3.org/2000/svg" viewBox="0 0 287.1 157.27">
  <defs>
    <style>
      .cls-1 {
        fill: #fff;
      }

      .cls-2 {
        fill: #e1eef9;
      }

      .cls-3 {
        fill: #363e48;
      }

      .cls-4 {
        fill: #4c9362;
      }
    </style>
  </defs>
  <g id="Layer_1" data-name="Layer 1">
    <path class="cls-2" d="M4.72,81.1l-.44-2.18c19.82-5.29,40.09-9.47,60.73-12.5v-5.67c-5.61-1.01,3.23-2.75,4.92-3.02,4.28-.69,8.85-1,12.56-.79l.08-1.49c-6.14-.35-14.42,.42-20.11,2.93v-4.34c5.45-2.65,14.04-3.43,20.03-3.08l.08-1.49c-4.87-.28-10.22,.14-15,1.27v-3.74c4.6-1.49,9.53-1.6,13.83-1.45l-.08-15.23,5.24-5.17,6.22,5.71V63.08l1.5-.14V30.21l-.24-.22-5.37-4.72,12.9,2.58,3.18,2.54,.11-19.88,8.65-5.47-.17,56.52,1.5-.08-.11-56.35,24.04,16.19v27.74c-9.21,.11-16.59,2.94-16.59,6.41,0,.12,0,.24,.03,.36,.49-3.02,7.97-5.42,17.12-5.42s16.63,2.4,17.13,5.42c.02-.12,.03-.24,.03-.36,0-3.43-7.18-6.22-16.23-6.4v-7.14l.05-.08c5.17-7.82,4.86-8.81,5.57-18.46,.09-1.17,8.5-1.17,8.58,0,.29,3.94,.49,8.63,1.92,12.68,.37,1.03,.73,2.06,1.09,3.08,.21,1.06,.5,1.29,.56,.28,.13-2.18-.17-7.9-.17-7.94-.42-9.33-.6-21.26,2.22-27.9,2.28-5.38,6.55-4.11,9.66-.17,1.11,1.4,2.19,3.24,3.18,5.52-2.76-1.57-6.25-.09-7.54,2.05,.25,.45,5.18-1.94,8.14-.59,.54,1.4,1.05,2.94,1.51,4.62,.56,2.33,1.13,4.76,1.75,8.18-1.8-3.2-10.97,.54-10.75,2.69,.43,.16,8.92-1.73,10.98-1.21,.17,1.11,.05,.86,.19,2.05,2.58-.89,3.41,.44,4.68-.03,3.69-1.36,4.05,1.74,5.71,1.63,1.97-.14,4.33-1.37,5.59,.72,1.21,2.01,4.27,.8,5.55,1.64-.52,1.18,.98,1.16,.21,2.25-.65,.93,3.53,3.19,3.36,10.11-.07,2.89,1.24,3.17,1.26,9.13,5.01-.84,14.66-.62,20.06,3.46l-.24,2.89c-2.33-1.21-5.35-2.08-8.58-2.57-3.69-.55-7.69-.56-11.29-.14,.17,.27,.03,1.48,.16,1.46,3.46-.46,7.33-.39,10.9,.15,3.76,.57,7.17,1.66,9.43,3.19,.17,.23,.33,.48,.45,.78,.39,1.02,.01,3.4-.37,5.35,19.95,2.99,39.54,7.08,58.72,12.2l-.42,2.19c-45.78-8.4-92.29-12.63-138.84-12.63s-93.05,4.23-138.82,12.62v-.03Zm167.77-19.6l.76,.04c1.34-5.15,.87-12.13,.4-16.73-.18-1.77-.1-3.26,.13-4.52,.06-.36,.14-.7,.23-1.02,.08-.32,.17-.61,.28-.89,.64-1.83,1.55-2.9,1.97-3.4,.34-.4,.53-.64,.39-1.07l-3.29-5.19,1.75,5.3c-.5,.6-1.59,1.9-2.32,4.12-.18,0-.38,0-.58,.04-.51-.09-1.15,0-1.88,.1-4.16,.59-5.71,3.48-5.07,3.39,1.75-.26,5.55-.83,6.94-.83-.15,1.2-.18,2.58-.02,4.14,.1,.95,.19,1.77,.28,2.56,.48,4.34,.89,8.04,.27,12.6-.06,.42-.13,.88-.21,1.37h-.03ZM100.41,26.64v-2.43l-13.23-4.17-.17,3.63,13.4,2.98h0Zm53.34-4.75v-3.9c0-1.31-7.12-1.31-7.12,0v3.9c2.08-.56,4.99-.57,7.12,0Z"/>
    <path class="cls-4" d="M7.86,127.36L0,86.17c47.31-9.03,95.38-13.58,143.55-13.58s96.23,4.54,143.55,13.58l-7.86,41.19c-43.96-8.34-89.3-12.76-135.69-12.76s-91.73,4.42-135.68,12.76h-.01Z"/>
    <path class="cls-1" d="M20.45,114.81c.05,.3,.15,.48,.31,.56,.16,.07,.38,.08,.67,.03,.19-.03,.45-.07,.76-.13,.3-.06,.64-.13,1-.2,.36-.07,.71-.15,1.07-.23,.35-.08,.66-.16,.93-.23,.27-.07,.47-.14,.6-.19-.05-.23-.12-.54-.18-.9-.08-.37-.17-.84-.28-1.41-.1-.57-.22-1.27-.35-2.11l-1.02-6.42c.11,.16,.34,.44,.66,.82,.34,.39,.75,.84,1.23,1.36s1,1.07,1.56,1.66c.55,.58,1.11,1.15,1.67,1.72,.56,.57,1.08,1.09,1.56,1.57,.48,.48,.9,.87,1.24,1.18,.48,.45,.9,.78,1.27,1,.35,.23,.71,.36,1.05,.41,.35,.05,.73,.04,1.15-.03,.64-.11,1.23-.23,1.8-.38,.57-.15,1.05-.3,1.44-.45s.64-.27,.74-.36l-.02-.14c-.43-.35-.92-.79-1.5-1.31s-1.2-1.1-1.86-1.72c-.66-.63-1.33-1.28-2.02-1.95-.68-.67-1.33-1.32-1.97-1.96-.63-.65-1.21-1.25-1.73-1.8-.52-.55-.95-1.03-1.29-1.43,.48-.82,1-1.69,1.54-2.61,.55-.92,1.09-1.84,1.64-2.75,.54-.91,1.03-1.76,1.48-2.54,.45-.78,.81-1.43,1.09-1.95,.19-.39,.29-.71,.32-.97,.02-.26-.07-.45-.27-.59-.21-.13-.55-.2-1.04-.21-.58-.03-1.12-.03-1.61,0-.49,.04-.92,.09-1.28,.15-.42,.87-.93,1.84-1.5,2.93-.58,1.08-1.19,2.2-1.83,3.35-.65,1.15-1.28,2.27-1.91,3.37-.63,1.09-1.21,2.09-1.74,2.99l-1.45-9.12c-.08-.52-.16-.93-.25-1.21s-.2-.47-.33-.56c-.14-.1-.33-.12-.56-.08-.17,.03-.4,.07-.7,.13s-.63,.13-.99,.21-.72,.16-1.08,.24c-.35,.09-.67,.16-.96,.23-.28,.07-.5,.13-.65,.18,.09,.33,.21,.87,.34,1.63,.14,.75,.3,1.72,.49,2.93l2.74,17.3h.02Zm31.4-27.35c-1.88,.2-3.51,.69-4.92,1.45-1.4,.75-2.55,1.73-3.46,2.93-.91,1.19-1.55,2.55-1.93,4.06-.38,1.52-.48,3.14-.3,4.86,.12,1.15,.38,2.27,.78,3.36,.4,1.1,.94,2.11,1.63,3.05s1.54,1.74,2.54,2.41,2.17,1.16,3.5,1.47c1.34,.3,2.83,.37,4.51,.2,1.54-.17,2.91-.53,4.12-1.07,1.21-.54,2.25-1.23,3.12-2.08,.87-.84,1.58-1.81,2.12-2.88s.91-2.23,1.11-3.46c.2-1.24,.23-2.51,.09-3.83-.13-1.28-.43-2.48-.87-3.6-.45-1.13-1.04-2.15-1.78-3.05-.74-.91-1.62-1.67-2.63-2.29-1.02-.63-2.16-1.07-3.43-1.34s-2.66-.33-4.17-.17h-.03v-.02Zm-.06,3.23c1.08-.11,2.06,.02,2.93,.4,.87,.37,1.63,.93,2.27,1.68,.65,.75,1.16,1.65,1.56,2.69,.39,1.04,.66,2.18,.79,3.43,.19,1.77,.11,3.32-.22,4.63-.33,1.31-.9,2.36-1.71,3.13s-1.85,1.23-3.13,1.36c-.91,.1-1.79,0-2.62-.31s-1.59-.8-2.27-1.5-1.25-1.59-1.7-2.68c-.46-1.09-.77-2.37-.93-3.85-.15-1.45-.12-2.72,.08-3.81,.2-1.09,.54-1.99,1.01-2.73,.48-.74,1.05-1.3,1.72-1.71,.67-.4,1.4-.64,2.19-.72h.03Zm26.33-5.86c-1.23,.09-2.3,.31-3.18,.66-.88,.35-1.62,.79-2.2,1.31-.59,.51-1.04,1.08-1.37,1.69s-.56,1.21-.68,1.83c-.12,.61-.16,1.17-.12,1.7,.03,.56,.13,1.13,.32,1.7,.17,.56,.45,1.13,.85,1.68s.95,1.09,1.65,1.62c.7,.53,1.6,1.04,2.69,1.53,.96,.44,1.73,.83,2.34,1.17,.6,.34,1.06,.66,1.39,.95,.33,.29,.55,.57,.68,.85s.2,.59,.22,.91c.03,.56-.08,1.03-.34,1.41-.27,.38-.65,.67-1.15,.88-.49,.21-1.08,.34-1.76,.38-.59,.04-1.21,0-1.86-.13-.66-.13-1.29-.29-1.9-.51-.61-.21-1.16-.45-1.63-.7-.08,.06-.17,.19-.27,.39s-.19,.45-.28,.73-.16,.56-.21,.84c-.05,.28-.07,.52-.07,.73,.01,.25,.1,.48,.27,.69s.44,.42,.81,.63c.34,.21,.78,.41,1.31,.58,.53,.18,1.15,.32,1.85,.41s1.49,.1,2.35,.05c1.1-.07,2.15-.3,3.13-.68,.99-.37,1.86-.89,2.62-1.55,.75-.66,1.33-1.45,1.74-2.38,.4-.92,.56-1.97,.49-3.15-.06-.88-.24-1.65-.52-2.28-.29-.63-.67-1.18-1.14-1.65-.48-.47-1.05-.89-1.69-1.26-.65-.37-1.37-.75-2.17-1.12-.89-.42-1.65-.8-2.27-1.14-.62-.33-1.11-.64-1.49-.93-.37-.29-.65-.59-.83-.89-.18-.31-.28-.64-.3-1.01-.04-.65,.18-1.18,.68-1.61,.49-.42,1.22-.68,2.19-.75,.37-.03,.79,0,1.24,.05s.88,.13,1.3,.24c.42,.11,.77,.21,1.05,.34,.36,0,.67-.1,.93-.28,.25-.19,.46-.43,.61-.71,.15-.29,.26-.59,.32-.91,.07-.32,.09-.6,.07-.87-.25-.22-.58-.43-1-.62s-.88-.35-1.4-.49c-.52-.14-1.05-.23-1.61-.29-.55-.06-1.1-.07-1.62-.04,0,0-.04,0-.04,0Zm18.95,8.63l-.26-7.36c-.02-.53-.05-.94-.1-1.23s-.14-.49-.26-.6c-.13-.11-.31-.16-.55-.14-.22,0-.52,.02-.89,.05-.38,.03-.8,.07-1.24,.1-.45,.04-.87,.09-1.29,.14-.41,.05-.77,.1-1.05,.16,.05,.34,.1,.9,.14,1.67,.05,.77,.09,1.77,.13,2.99l.41,11.56c.05,1.51,.09,2.82,.11,3.91s.02,2.01,0,2.73c.2,0,.47,0,.82-.02,.34,0,.72-.04,1.12-.06,.4-.03,.8-.06,1.17-.1,.38-.03,.7-.07,.98-.11,.3-.03,.54-.08,.73-.15,.17-.06,.31-.17,.38-.31,.08-.14,.11-.34,.1-.61l-.32-9.22,5.07-.18c.87-.03,1.61-.07,2.2-.11,.6-.04,1.08-.08,1.44-.13l.34,9.77c0,.3,.09,.49,.24,.59,.15,.09,.37,.13,.66,.11,.25,0,.58-.03,.98-.05,.41-.03,.84-.06,1.29-.11,.46-.04,.88-.09,1.27-.14s.68-.1,.9-.15c-.02-.24-.05-.55-.07-.92-.03-.38-.06-.86-.1-1.43-.03-.58-.06-1.29-.09-2.13l-.41-11.78c-.05-1.51-.09-2.82-.11-3.92s-.03-1.99,0-2.69c-.34,.02-.7,.04-1.1,.07-.39,.02-.8,.05-1.2,.07-.41,.03-.79,.05-1.14,.08-.35,.02-.65,.05-.89,.08-.22,.03-.4,.08-.54,.14-.15,.06-.25,.16-.32,.32-.07,.15-.1,.36-.09,.64l.29,8.17-8.72,.3h-.02Zm22.48,11.82l.6,.72c.45,.09,1.22,.16,2.33,.21,1.1,.05,2.48,.06,4.13,.04,1.48-.03,2.65-.06,3.53-.11,.87-.05,1.43-.1,1.69-.16,.32-.21,.62-.46,.88-.75,.26-.29,.49-.65,.69-1.07,.19-.42,.34-.94,.46-1.54l-.08-.07c-.48,.04-1,.09-1.56,.11s-1.12,.05-1.7,.07c-.56,.01-1.09,.03-1.59,.04-.5,0-.92,.02-1.28,.02-.62,0-1.15,0-1.61-.02-.46-.03-.89-.08-1.31-.14l-.12-6.61,5.22-.09c.44,0,.82-.09,1.14-.29,.32-.19,.59-.54,.81-1.04,.21-.5,.37-1.22,.47-2.14l-7.7,.13-.11-5.91,3.21-.06c.55,0,1.07-.02,1.56-.03,.48-.02,.91-.05,1.28-.08s.65-.09,.85-.17c.14-.17,.29-.37,.44-.62,.15-.25,.28-.58,.41-1s.23-.95,.3-1.62c-.75,.01-1.54,.02-2.38,.04-.84,.01-1.67,.03-2.48,.04s-1.55,.03-2.21,.04c-.67,.01-1.2,.02-1.61,.03-.58,.02-1.16,.06-1.73,.12-.57,.06-1.12,.13-1.64,.21-.51,.08-.97,.17-1.36,.26,.05,.53,.08,1.03,.11,1.51,.02,.48,.04,.97,.05,1.47,0,.49,.02,1.03,.03,1.61l.29,16.82v.03Zm25.34-8.6c.08-.02,.17-.02,.24-.01,.07,0,.16,.01,.27,.01,.2,0,.39,.01,.6,.06,.2,.04,.39,.13,.6,.26,.2,.14,.41,.35,.63,.64,.21,.29,.45,.67,.69,1.16,.5,1.03,.94,1.92,1.32,2.66,.37,.74,.7,1.36,1,1.87s.58,.94,.86,1.27c.32,.41,.66,.72,1,.95s.71,.38,1.11,.46c.4,.09,.86,.13,1.36,.12,.49,0,.98-.02,1.45-.06,.47-.03,.87-.08,1.21-.14,.34-.06,.56-.13,.67-.2v-.15c-.32-.36-.66-.79-1.01-1.27-.35-.49-.74-1.09-1.18-1.8-.43-.71-.93-1.57-1.5-2.59-.39-.7-.76-1.36-1.14-1.99-.36-.63-.72-1.18-1.04-1.66-.33-.47-.64-.84-.92-1.09,.3-.14,.63-.32,1.01-.53,.37-.22,.76-.49,1.14-.81s.74-.69,1.07-1.11c.32-.43,.59-.91,.78-1.45,.2-.54,.3-1.16,.31-1.83,0-1.5-.31-2.74-.95-3.71-.64-.99-1.63-1.71-2.97-2.2-1.33-.49-3.05-.72-5.13-.72-.34,0-.76,.02-1.25,.05-.49,.03-1,.07-1.55,.12s-1.07,.1-1.58,.16c-.51,.06-.97,.12-1.36,.17-.39,.06-.68,.11-.86,.15,.02,.32,.04,.65,.05,.99,0,.33,0,.72,.02,1.14v13.78c0,1.52,0,2.84-.02,3.94-.02,1.1-.05,2.01-.09,2.74h.88c.37,0,.77,0,1.2-.03,.43,0,.84-.03,1.23-.05,.4-.02,.73-.04,1-.07,.21-.02,.37-.06,.51-.12,.13-.05,.22-.15,.28-.28s.09-.32,.09-.55v-8.29h-.03Zm0-10.75c.19-.03,.4-.05,.63-.07h.69c.74,0,1.4,.14,1.98,.44,.58,.29,1.04,.75,1.37,1.35,.34,.6,.51,1.37,.52,2.29,0,.59-.08,1.1-.23,1.52s-.32,.77-.54,1.04c-.21,.28-.42,.49-.63,.65s-.37,.27-.5,.33c-.14,.07-.33,.12-.61,.16-.27,.04-.58,.08-.91,.1s-.66,.04-.97,.04-.58-.02-.8-.04v-7.81Zm22.72,19.98c0,.27,.07,.45,.21,.54,.15,.09,.36,.14,.66,.13,.88,.02,1.7,0,2.45-.03,.76-.03,1.43-.1,2.01-.18,0-.24-.02-.54-.03-.92,0-.37-.02-.85-.02-1.42s0-1.28,.02-2.11l.26-14.85,5.4,.09c.29-.05,.59-.2,.89-.43,.31-.24,.58-.6,.82-1.08s.41-1.11,.5-1.88l-13.31-.23c-.87-.01-1.6-.03-2.2-.04-.59-.01-1.08-.03-1.46-.05-.38-.02-.69-.04-.93-.07-.24-.03-.44-.06-.59-.1-.14,.15-.28,.33-.43,.53s-.3,.45-.45,.75c-.15,.29-.3,.65-.44,1.07-.15,.47-.17,.79-.04,.97,.12,.19,.34,.28,.68,.28l6.35,.11-.33,18.93h-.02Zm28.97-21.97c-1.88-.09-3.57,.13-5.08,.66-1.5,.52-2.8,1.31-3.87,2.35-1.08,1.03-1.93,2.28-2.54,3.71-.61,1.44-.96,3.02-1.06,4.76-.06,1.15,.02,2.3,.24,3.44,.22,1.15,.6,2.23,1.13,3.26s1.25,1.96,2.13,2.78c.89,.82,1.96,1.49,3.23,1.99,1.27,.51,2.74,.82,4.42,.91,1.55,.07,2.96-.07,4.23-.41,1.28-.35,2.42-.87,3.41-1.57,1-.7,1.84-1.53,2.54-2.51,.7-.98,1.25-2.06,1.64-3.24,.39-1.19,.62-2.45,.69-3.77,.07-1.28-.03-2.51-.29-3.69-.27-1.18-.69-2.28-1.28-3.3-.59-1.01-1.34-1.9-2.24-2.67-.9-.78-1.96-1.39-3.17-1.86-1.22-.47-2.58-.74-4.1-.82h-.04v-.02Zm-.55,3.19c1.08,.06,2.03,.34,2.83,.85,.8,.5,1.46,1.17,1.98,2.01,.51,.84,.88,1.81,1.11,2.9,.23,1.09,.31,2.27,.24,3.51-.09,1.78-.41,3.29-.94,4.54-.53,1.24-1.26,2.19-2.18,2.82-.93,.63-2.02,.92-3.31,.85-.92-.05-1.76-.29-2.54-.72-.78-.43-1.44-1.04-2-1.83-.56-.8-.99-1.77-1.27-2.92s-.38-2.46-.31-3.95c.08-1.46,.31-2.71,.68-3.75s.85-1.89,1.43-2.54c.59-.65,1.24-1.12,1.96-1.42,.73-.29,1.49-.41,2.27-.37h.04v.02Zm34.52,.32c-.61-.05-1.23-.04-1.86,.05-.64,.09-1.32,.24-2.07,.45,.02,.17,.04,.39,.06,.64s.04,.5,.03,.72c-.41,1.16-.83,2.33-1.25,3.48-.42,1.16-.82,2.27-1.22,3.35s-.76,2.07-1.1,2.99-.63,1.72-.87,2.4c-.24,.69-.42,1.22-.54,1.6-.23-1.51-.47-2.96-.7-4.36-.23-1.39-.45-2.71-.66-3.93s-.4-2.33-.58-3.32c-.17-1-.33-1.83-.45-2.52-.13-.69-.25-1.22-.37-1.6s-.26-.65-.42-.8c-.17-.16-.39-.24-.66-.26-.31-.03-.68-.03-1.11,0-.43,.02-.86,.06-1.32,.11-.45,.05-.86,.11-1.24,.18-.37,.07-.66,.13-.85,.2,.4,1.3,.78,2.7,1.15,4.2,.36,1.5,.71,3.05,1.05,4.66s.67,3.23,.99,4.87,.64,3.24,.95,4.81c.31,1.58,.63,3.08,.94,4.5,.44,.04,.88,.05,1.35,.05s.9,0,1.29-.04,.69-.06,.88-.11c.28-.09,.51-.25,.69-.48s.35-.52,.49-.88c.18-.45,.38-.98,.63-1.62s.51-1.34,.8-2.09c.28-.75,.58-1.53,.87-2.32,.3-.8,.59-1.57,.87-2.33,.29-.76,.55-1.47,.79-2.12,.24-.65,.45-1.21,.62-1.68,.17-.47,.29-.81,.36-1.02,.18,1.08,.36,2.19,.54,3.34,.18,1.15,.35,2.3,.53,3.45s.35,2.27,.51,3.35c.16,1.09,.31,2.1,.46,3.04,.14,.94,.28,1.78,.39,2.52,.33,.03,.68,.05,1.06,.06,.38,0,.76,.02,1.13,0,.37,0,.7-.02,.99-.04,.29-.02,.5-.06,.64-.1,.2-.07,.38-.2,.52-.37,.14-.18,.29-.4,.41-.68,.98-2.12,1.97-4.27,2.96-6.46s1.95-4.38,2.88-6.56c.94-2.18,1.81-4.32,2.64-6.42,.14-.35,.2-.64,.16-.86-.03-.22-.16-.4-.37-.53s-.5-.24-.89-.31c-.38-.07-.76-.14-1.13-.19-.38-.06-.7-.1-.98-.13s-.47-.06-.56-.06c-.25,.63-.54,1.41-.88,2.33-.35,.92-.77,2.03-1.25,3.33s-1.05,2.82-1.71,4.58c-.65,1.76-1.42,3.78-2.28,6.07-.28-1.85-.55-3.62-.81-5.31-.26-1.68-.5-3.22-.72-4.63-.22-1.41-.42-2.61-.59-3.61-.16-1-.29-1.73-.38-2.21-.05-.24-.11-.46-.18-.67-.07-.2-.16-.37-.26-.5s-.23-.2-.39-.22h.02Zm20.34,3.86l-2.12,15.1c-.21,1.51-.4,2.81-.57,3.88-.17,1.08-.32,1.97-.46,2.68,.43,.07,.87,.14,1.29,.18,.43,.05,.82,.09,1.18,.11,.35,.02,.65,.03,.87,.03s.4-.02,.53-.06c.14-.03,.25-.11,.32-.23s.12-.3,.16-.53l1.33-9.5c.09-.61,.17-1.25,.27-1.92,.09-.66,.18-1.4,.27-2.22,.09-.83,.18-1.8,.26-2.9,.26,.79,.51,1.53,.74,2.23,.23,.7,.48,1.41,.73,2.11s.53,1.45,.84,2.24,.68,1.67,1.1,2.63c.52,1.19,.97,2.23,1.36,3.13,.39,.9,.74,1.7,1.05,2.41s.61,1.37,.89,1.99c.29,.62,.59,1.24,.9,1.86,.12,.25,.25,.44,.39,.55s.34,.19,.61,.22c.32,.05,.68,.07,1.1,.08,.42,0,.84,0,1.26,0s.79-.03,1.1-.06c.32,0,.53-.04,.63-.05l2.24-15.9c.21-1.49,.4-2.78,.57-3.86s.32-2.01,.47-2.77c-.31-.04-.65-.08-1.02-.12s-.76-.07-1.16-.1c-.41-.02-.81-.05-1.2-.07-.19-.03-.35-.03-.48,0s-.24,.11-.31,.25c-.08,.13-.14,.33-.18,.61l-1.42,10.1c-.07,.46-.13,.88-.18,1.27-.06,.39-.11,.78-.15,1.17s-.08,.82-.11,1.28c-.03,.46-.06,.99-.08,1.59-.2-.67-.44-1.36-.7-2.07-.27-.7-.57-1.45-.9-2.23-.33-.79-.69-1.65-1.08-2.57-.4-.97-.82-1.97-1.26-2.98s-.87-1.99-1.29-2.93-.8-1.8-1.15-2.57c-.34-.77-.63-1.39-.85-1.87-.15-.22-.3-.41-.45-.55-.15-.14-.32-.22-.51-.25-.15-.02-.4-.05-.75-.08-.34-.04-.73-.07-1.17-.11s-.88-.08-1.33-.12c-.44-.03-.84-.06-1.2-.09-.35-.03-.62-.04-.8-.04l-.02,.18,.43,.87h.01Z"/>
    <path class="cls-2" d="M52.49,125.54c26.44-2.87,55.75-4.79,87.51-4.92,34.34-.14,65.87,1.85,94.07,4.92v10.35H52.49v-10.35Z"/>
    <path class="cls-3" d="M143.26,126.66c.58-.72,1.01-1.75,.83-2.77,.27-.13,.68-.29,1.06-.29,.35,0,.46,.34,.46,.68,0,.85-.58,1.7-1.03,2.09-.33,.28-.9,.34-1.3,.33v-.04h-.02Z"/>
    <g>
      <path class="cls-3" d="M107.99,124.63c0,.3-.35,.9-.72,.7-.19-.12-.68-.39-1.19-.39-.62,0-1.08,.39-1.08,.94,0,.43,.15,.77,1.14,1.42,1.3,.84,1.67,1.45,1.67,2.31,0,1.63-1.3,2.45-2.84,2.45-.88,0-1.69-.33-2.07-.77-.11-.14-.17-.27-.17-.48,0-.32,.21-.62,.41-.75,.44,.4,1.18,.83,1.95,.83s1.16-.38,1.16-.9-.21-.84-1.19-1.51c-1.27-.85-1.56-1.49-1.56-2.34,0-1.29,.99-2.31,2.62-2.31,.9,0,1.67,.43,1.87,.79h0Z"/>
      <path class="cls-3" d="M113.99,128.14c-.11,.63-.18,1.08-.3,1.91-.05,.38-.14,1.13-.14,1.5-.4,.17-1.26,.22-1.47,.22-.1,0-.11-.58,.02-1.46,.11-.73,.24-1.45,.39-2.29,.06-.38,0-.68-.28-.68-.52,0-1.57,.91-2.03,3.75-.04,.22-.1,.33-.21,.39-.18,.11-.8,.23-1.42,.24,.23-1.18,.83-5.34,.95-6.4,.15-1.31,.18-1.59,.18-1.8,.41-.1,1.05-.17,1.41-.17,.17,0,.17,.22,.12,.52-.11,.76-.32,2.24-.56,3.83,.62-1.03,1.42-1.61,2.36-1.61,.88,0,1.18,.82,.97,2.04h.01Z"/>
      <path class="cls-3" d="M117.07,126.82c-.22,1.57-.46,3.44-.58,4.26-.03,.22-.11,.34-.19,.4-.12,.1-.82,.23-1.47,.24,.11-.8,.35-2.1,.5-3.25,.17-1.28,.24-1.9,.23-2.08,.15-.07,1.27-.29,1.42-.29s.18,.11,.1,.72h0Zm.29-2.5c.04,.65-.46,1-.85,1-.3,0-.72-.12-.77-.78-.04-.74,.56-1,.84-1,.4,0,.74,.16,.78,.78h0Z"/>
      <path class="cls-3" d="M119.94,127.68c.51-.77,1.29-1.58,2.35-1.58,.71,0,1.03,.62,.96,1.47,0,.04,0,.08,0,.12h.02c.55-.86,1.27-1.59,2.35-1.59,.94,0,1.13,.95,.99,1.9-.1,.53-.23,1.35-.34,2.05-.08,.6-.13,1.13-.15,1.5-.3,.16-1.23,.22-1.44,.22-.11,0-.1-.68,.02-1.38,.1-.62,.29-1.7,.4-2.31,.1-.46-.04-.72-.24-.72-.53,0-1.53,.79-2.07,3.66-.05,.26-.11,.38-.22,.45-.16,.1-.64,.23-1.42,.24,.24-1.16,.55-2.82,.62-3.65,.04-.38,0-.7-.28-.7-.5,0-1.54,.84-2.09,3.66-.05,.26-.1,.36-.21,.45-.16,.12-.63,.23-1.42,.24,.15-.74,.36-2.26,.55-3.38,.16-1.02,.21-1.68,.18-1.95,.21-.07,1.29-.29,1.41-.29,.13,0,.17,.39,.04,1.31,0,.07-.04,.19-.04,.27h.04Z"/>
      <path class="cls-3" d="M129.55,127.68c.51-.77,1.29-1.58,2.35-1.58,.71,0,1.03,.62,.96,1.47v.12h.02c.55-.86,1.27-1.59,2.35-1.59,.94,0,1.13,.95,.99,1.9-.1,.53-.23,1.35-.34,2.05-.08,.6-.13,1.13-.15,1.5-.3,.16-1.23,.22-1.44,.22-.11,0-.1-.68,.02-1.38,.1-.62,.29-1.7,.4-2.31,.1-.46-.04-.72-.24-.72-.53,0-1.53,.79-2.07,3.66-.05,.26-.11,.38-.22,.45-.16,.1-.65,.23-1.42,.24,.24-1.16,.55-2.82,.62-3.65,.04-.38,0-.7-.28-.7-.5,0-1.54,.84-2.09,3.66-.05,.26-.1,.36-.21,.45-.16,.12-.63,.23-1.42,.24,.15-.74,.36-2.26,.55-3.38,.16-1.02,.21-1.68,.18-1.95,.21-.07,1.29-.29,1.41-.29,.13,0,.17,.39,.04,1.31,0,.07-.04,.19-.04,.27h.03Z"/>
      <path class="cls-3" d="M136.32,133.57c.55-.45,1.57-1.41,1.91-1.87-.08-.21-.21-.47-.3-.9-.23-1.06-.53-3.38-.6-4.4,.35-.13,1.11-.29,1.4-.29,.15,0,.18,.09,.19,.22,.06,.95,.19,2.4,.29,3.14,.05,.37,.13,.62,.18,.77,.79-1.19,1.32-2.85,1.41-3.96,.15-.06,.74-.17,1.11-.17,.1,0,.12,.16,.12,.38,0,.89-.33,2.4-1.82,4.65-1.01,1.52-2.34,2.86-2.81,3.12-.51,0-1-.35-1.08-.67v-.02Z"/>
      <path class="cls-3" d="M148.57,126.5c0,.35-.27,.93-.7,.77-.17-.06-.37-.11-.6-.11-.33,0-.62,.15-.62,.45,0,.23,.18,.4,.97,.97,.6,.42,.83,.8,.83,1.34,0,.89-.85,1.85-2.29,1.85-.61,0-1.14-.23-1.3-.48-.18-.3-.12-.85,.11-1.01,.32,.19,.92,.38,1.36,.38,.39,0,.65-.18,.65-.43,0-.21-.18-.39-.91-.91-.63-.46-.83-.89-.83-1.37,0-1.01,.87-1.85,2.14-1.85,.51,0,.98,.17,1.19,.4h0Z"/>
      <path class="cls-3" d="M157.13,131.11c-.17,.52-1.12,1.03-2.15,1.03-1.66,0-2.65-.97-2.65-3.03,0-1.36,.41-2.86,1.39-3.97,.61-.71,1.57-1.3,2.71-1.3,.75,0,1.42,.32,1.57,.72,0,.29-.33,.91-.68,.62-.18-.13-.52-.25-.84-.25-1.24,0-2.53,1.57-2.53,4.11,0,1.18,.49,1.94,1.45,1.94,.57,0,1.19-.35,1.47-.62,.23,.1,.28,.5,.27,.75h-.01Z"/>
      <path class="cls-3" d="M163.14,128.27c0,1.98-1.25,3.5-3.19,3.5-1.37,0-2.08-.68-2.08-2.13,0-1.92,1.15-3.54,3.18-3.54,1.46,0,2.09,.93,2.09,2.17h0Zm-3.61,1.52c0,.55,.17,1,.63,1,.79,0,1.35-1.25,1.35-2.76,0-.44-.15-.95-.63-.95-.83,0-1.35,1.34-1.35,2.71h0Z"/>
      <path class="cls-3" d="M165.85,127.84c.65-1.42,1.41-1.74,1.91-1.74,.22,0,.4,.1,.51,.21,.05,.4-.27,1.2-.55,1.51-.15-.07-.32-.15-.54-.15-.41,0-1.23,.66-1.74,3.43-.04,.23-.11,.33-.24,.39-.21,.12-1.02,.22-1.41,.23,.18-1,.5-3.03,.62-4.22,.04-.32,.05-.88,.02-1.1,.23-.1,1.14-.3,1.35-.3,.11,0,.19,.66,.02,1.74h.05Z"/>
      <path class="cls-3" d="M170.35,127.68c.56-.9,1.29-1.58,2.32-1.58,.86,0,1.15,.8,.98,1.95-.07,.54-.22,1.3-.33,2.01-.08,.6-.15,1.13-.13,1.5-.32,.16-1.24,.22-1.45,.22-.09,0-.1-.67,.02-1.38,.1-.58,.29-1.64,.4-2.25,.05-.35,.05-.78-.29-.78-.46,0-1.53,.72-2.05,3.66-.05,.24-.14,.39-.28,.48-.18,.11-.57,.21-1.36,.22,.15-.74,.38-2.26,.55-3.38,.16-1.02,.22-1.68,.18-1.95,.21-.07,1.29-.29,1.42-.29s.16,.38,.04,1.29c0,.08-.02,.22-.04,.29h.02Z"/>
      <path class="cls-3" d="M179.06,127.38c0,1.5-1.92,2.03-3.02,2.1v.16c0,.6,.26,.94,.84,.94,.71,0,1.3-.4,1.68-.73,.1,.07,.16,.24,.16,.48,0,.27-.09,.51-.22,.66-.35,.39-1.06,.79-2.12,.79-1.34,0-1.87-.84-1.87-2.11,0-1.78,1.17-3.56,3.05-3.56,.99,0,1.49,.56,1.49,1.28h0Zm-2.95,1.13c1.11-.09,1.63-.61,1.63-1.06,0-.18-.11-.45-.41-.45-.46,0-1.02,.49-1.22,1.51Z"/>
      <path class="cls-3" d="M181.59,127.84c.65-1.42,1.41-1.74,1.91-1.74,.22,0,.4,.1,.51,.21,.05,.4-.27,1.2-.55,1.51-.15-.07-.32-.15-.54-.15-.41,0-1.23,.66-1.74,3.43-.04,.23-.11,.33-.24,.39-.21,.12-1.02,.22-1.41,.23,.18-1,.5-3.03,.62-4.22,.04-.32,.05-.88,.02-1.1,.23-.1,1.14-.3,1.35-.3,.11,0,.19,.66,.02,1.74h.05Z"/>
      <polygon class="cls-3" points="192.92 128.4 191.79 129.44 192.02 130.97 190.67 130.22 189.3 130.9 189.59 129.39 188.51 128.29 190.04 128.11 190.75 126.75 191.4 128.14 192.92 128.4"/>
      <polygon class="cls-3" points="96.05 128.39 94.92 129.44 95.15 130.96 93.8 130.22 92.43 130.9 92.72 129.39 91.64 128.3 93.17 128.11 93.88 126.74 94.53 128.14 96.05 128.39"/>
    </g>
    <path class="cls-2" d="M65.23,154.71v-2.89h-2.71v.83h1.84v1.55c-.2,.1-.41,.18-.66,.24-.24,.06-.5,.09-.77,.09-.36,0-.68-.06-.98-.19-.3-.12-.55-.3-.76-.53s-.37-.51-.49-.84c-.12-.33-.17-.69-.17-1.1s.06-.77,.17-1.09c.11-.32,.28-.6,.48-.82,.21-.23,.46-.4,.75-.52,.29-.12,.62-.18,.98-.18,.34,0,.67,.06,1,.17s.63,.25,.89,.42l.29-.82c-.27-.18-.61-.32-1.01-.42-.4-.1-.79-.15-1.18-.15-.48,0-.92,.08-1.32,.25-.4,.16-.75,.4-1.04,.7s-.52,.66-.68,1.09c-.16,.42-.25,.9-.25,1.42s.08,1,.24,1.42c.16,.42,.39,.78,.68,1.08s.64,.53,1.04,.69,.85,.24,1.33,.24c.36,0,.75-.05,1.17-.16s.8-.26,1.15-.47h.01Zm4.47-2.07l1.13-.07,1.6,2.61h1.06l-1.78-2.75c.46-.15,.82-.37,1.08-.68,.27-.31,.4-.71,.4-1.21,0-.59-.2-1.06-.61-1.4-.41-.35-1.01-.52-1.81-.52h-1.97v6.57h.89v-2.53h0v-.02Zm.01-.78v-2.45h.97c.5,0,.9,.1,1.19,.28,.29,.19,.44,.48,.44,.87,0,.2-.04,.38-.12,.54-.08,.15-.18,.28-.32,.39-.14,.1-.29,.19-.48,.24-.18,.05-.38,.09-.6,.09l-1.08,.03h0Zm12.9-1.4c-.17-.42-.39-.78-.68-1.08s-.64-.53-1.04-.69-.85-.24-1.33-.24-.93,.09-1.33,.26-.75,.42-1.05,.73c-.29,.31-.52,.68-.68,1.1-.16,.42-.24,.88-.24,1.37,0,.52,.08,.99,.25,1.41,.16,.42,.39,.79,.68,1.08,.29,.3,.64,.53,1.04,.69s.85,.24,1.33,.24,.93-.09,1.33-.27c.4-.18,.75-.42,1.05-.73,.29-.31,.52-.68,.68-1.1,.16-.42,.24-.88,.24-1.37,0-.52-.08-.99-.25-1.41h0Zm-.83,2.53c-.12,.32-.28,.6-.49,.83s-.46,.41-.75,.53c-.29,.13-.61,.19-.96,.19s-.69-.06-.98-.19c-.3-.12-.55-.3-.77-.53-.21-.23-.38-.51-.49-.84-.12-.33-.17-.69-.17-1.1s.06-.75,.17-1.07c.12-.32,.28-.6,.49-.82,.21-.23,.46-.4,.75-.53s.61-.19,.96-.19,.69,.06,.98,.19c.3,.12,.55,.3,.77,.53,.21,.23,.38,.51,.5,.83s.18,.69,.18,1.09-.06,.75-.18,1.07h-.01Zm9.52-3.96c-.27-.17-.58-.3-.96-.4-.37-.1-.75-.15-1.12-.15-.48,0-.92,.08-1.32,.25-.4,.16-.75,.4-1.04,.7s-.52,.66-.68,1.09c-.16,.42-.25,.9-.25,1.42s.08,1,.24,1.42c.16,.42,.39,.78,.68,1.08s.64,.53,1.04,.69,.85,.24,1.33,.24c.37,0,.74-.05,1.09-.15,.36-.1,.67-.23,.94-.4l-.15-.89c-.23,.18-.51,.33-.84,.45-.33,.12-.67,.18-1.02,.18s-.69-.06-.98-.19c-.3-.12-.55-.3-.76-.53s-.37-.51-.49-.84c-.12-.33-.17-.69-.17-1.1s.06-.77,.17-1.09c.12-.32,.28-.6,.48-.82,.21-.23,.46-.4,.75-.52,.29-.12,.62-.18,.98-.18s.66,.05,.94,.14,.57,.23,.86,.42l.28-.81h0Zm7.55,6.16v-.83h-3.27v-2.05h2.72v-.83h-2.72v-2.03h3.27v-.83h-4.16v6.57h4.16Zm4.34-2.53l1.12-.07,1.6,2.61h1.06l-1.78-2.75c.46-.15,.82-.37,1.08-.68,.27-.31,.4-.71,.4-1.21,0-.59-.2-1.06-.61-1.4-.41-.35-1.01-.52-1.81-.52h-1.97v6.57h.89v-2.53h0l.02-.02Zm0-.78v-2.45h.97c.5,0,.9,.1,1.19,.28,.29,.19,.44,.48,.44,.87,0,.2-.04,.38-.12,.54-.08,.15-.18,.28-.32,.39-.14,.1-.29,.19-.48,.24-.18,.05-.38,.09-.6,.09l-1.08,.03h0Zm11.47-3.25h-.99l-1.72,3.07-1.75-3.07h-1.01l2.29,3.95v2.62h.89v-2.61l2.28-3.96h.01Zm6.77,8.66h.7v-9.47h-.7v9.47h0Zm13.23-8.26c-.27-.17-.59-.3-.96-.4-.37-.1-.75-.15-1.13-.15-.48,0-.92,.08-1.32,.25-.4,.16-.75,.4-1.04,.7s-.52,.66-.68,1.09c-.16,.42-.25,.9-.25,1.42s.08,1,.24,1.42,.39,.78,.68,1.08,.64,.53,1.04,.69,.85,.24,1.33,.24c.37,0,.74-.05,1.09-.15,.36-.1,.67-.23,.94-.4l-.15-.89c-.23,.18-.51,.33-.84,.45s-.67,.18-1.02,.18-.69-.06-.98-.19c-.3-.12-.55-.3-.76-.53-.21-.23-.37-.51-.49-.84-.12-.33-.17-.69-.17-1.1s.06-.77,.17-1.09c.12-.32,.28-.6,.48-.82,.21-.23,.46-.4,.75-.52,.29-.12,.62-.18,.98-.18s.65,.05,.94,.14c.28,.09,.57,.23,.86,.42l.28-.81h.01Zm6.1-.41h-1.02l-2.47,6.57h.93l.62-1.72h2.85l.62,1.72h.91l-2.44-6.57h0Zm.61,4.04h-2.26l1.14-3.11,1.12,3.11h0Zm4.82,2.53h.89v-2.77h2.62v-.83h-2.62v-2.13h3.16v-.84h-4.06v6.57h0Zm11.47,0v-.83h-3.27v-2.05h2.72v-.83h-2.72v-2.03h3.27v-.83h-4.16v6.57h4.16Zm7.17,2.09h.7v-9.47h-.7v9.47h0Zm13.05-7.82v-.84h-5.48v.84h2.3v5.73h.87v-5.73h2.31Zm5.33-.84h-1.02l-2.47,6.57h.93l.62-1.72h2.85l.62,1.72h.91l-2.44-6.57h0Zm.61,4.04h-2.26l1.14-3.11,1.12,3.11h0Zm5.71-.91v-3.13h-.89v6.57h.89v-3.12h0l2.8,3.12h1.15l-3.07-3.32,3.04-3.25h-1.13l-2.79,3.13h0Zm11.13,3.44v-.83h-3.27v-2.05h2.72v-.83h-2.72v-2.03h3.27v-.83h-4.16v6.57h4.16Zm9.4-4.72c-.16-.42-.39-.78-.68-1.08s-.64-.53-1.04-.69-.85-.24-1.33-.24-.93,.09-1.33,.26c-.4,.17-.75,.42-1.05,.73-.29,.31-.52,.68-.68,1.1-.16,.42-.24,.88-.24,1.37,0,.52,.08,.99,.25,1.41,.16,.42,.39,.79,.68,1.08,.29,.3,.64,.53,1.04,.69s.85,.24,1.33,.24,.92-.09,1.33-.27c.4-.18,.75-.42,1.05-.73,.29-.31,.52-.68,.68-1.1,.16-.42,.24-.88,.24-1.37,0-.52-.08-.99-.25-1.41h0Zm-.83,2.53c-.12,.32-.28,.6-.49,.83s-.46,.41-.75,.53c-.29,.13-.61,.19-.96,.19s-.69-.06-.98-.19c-.3-.12-.55-.3-.77-.53-.21-.23-.38-.51-.49-.84-.12-.33-.17-.69-.17-1.1s.06-.75,.17-1.07c.12-.32,.28-.6,.49-.82,.21-.23,.46-.4,.75-.53s.61-.19,.96-.19,.68,.06,.98,.19c.3,.12,.55,.3,.77,.53,.21,.23,.38,.51,.5,.83s.18,.69,.18,1.09-.06,.75-.18,1.07h0Zm9.63-.32v-4.04h-.87v4.06c0,.62-.15,1.08-.44,1.38-.3,.3-.7,.45-1.22,.45-.59,0-1.03-.17-1.32-.5-.29-.33-.43-.8-.43-1.39v-4h-.87v4.13c0,.39,.06,.75,.17,1.07s.28,.59,.49,.82c.22,.23,.49,.4,.81,.53,.32,.12,.69,.18,1.1,.18,.44,0,.81-.06,1.14-.19,.32-.13,.59-.3,.81-.54,.21-.23,.37-.51,.48-.85,.11-.33,.16-.71,.16-1.12h-.01Zm8.6-3.19v-.84h-5.48v.84h2.3v5.73h.87v-5.73h2.31Z"/>
  </g>
</svg>